<?xml version="1.0" encoding="utf-8"?>
<svg width="48px" height="48px" viewBox="0 0 48 48" version="1.1" xmlns:xlink="http://www.w3.org/1999/xlink" xmlns="http://www.w3.org/2000/svg">
  <defs>
    <path d="M48 0L48 0L48 48L0 48L0 0L48 0Z" id="path_1" />
    <clipPath id="clip_1">
      <use xlink:href="#path_1" clip-rule="evenodd" fill-rule="evenodd" />
    </clipPath>
  </defs>
  <g id="My Sql" clip-path="url(#clip_1)">
    <path d="M48 0L48 0L48 48L0 48L0 0L48 0Z" id="My-Sql" fill="none" stroke="none" />
    <path d="M4 24C4 12.9543 12.9543 4 24 4C35.0457 4 44 12.9543 44 24C44 35.0457 35.0457 44 24 44C12.9543 44 4 35.0457 4 24Z" id="Circle" fill="#216287" fill-rule="evenodd" stroke="none" />
    <path d="M6 24C6 14.0589 14.0589 6 24 6C33.9411 6 42 14.0589 42 24C42 33.9411 33.9411 42 24 42C14.0589 42 6 33.9411 6 24Z" id="Circle" fill="#E87912" fill-rule="evenodd" stroke="none" />
    <path d="M29.69 31.95C29.69 36.3 26.6 39.93 22.5 40.77L21.95 40.87C13.53 39.87 7 32.7 7 24C7 14.61 14.61 7 24 7C24.17 7 24.35 7 24.52 7.01C21.02 8.24 18.5 11.57 18.5 15.5C18.5 16.99 18.86 18.4 19.51 19.64C20.37 21.3 21.81 22.58 23.48 23.42L24.7 24.03C26.37 24.87 27.82 26.15 28.68 27.81C29.32 29.05 29.69 30.46 29.69 31.95L29.69 31.95Z" id="Shape" fill="#216287" stroke="none" />
    <path d="M24 6C14.059 6 6 14.059 6 24C6 32.671 12.132 39.906 20.295 41.614L20.307 41.677L20.466 41.648C21.609 41.876 22.79 42 24 42C33.941 42 42 33.941 42 24C42 14.059 33.941 6 24 6L24 6ZM8 24C8 16.065 13.813 9.479 21.4 8.231C19.309 9.994 18 12.626 18 15.5C18 17.019 18.367 18.529 19.062 19.868C19.927 21.536 21.378 22.919 23.259 23.864L24.478 24.477C26.169 25.329 27.469 26.561 28.237 28.041C28.867 29.255 29.186 30.569 29.186 31.948C29.186 35.593 26.836 38.805 23.475 39.972C14.897 39.693 8 32.645 8 24L8 24ZM25.905 39.876C28.504 38.155 30.186 35.208 30.186 31.949C30.186 30.429 29.819 28.92 29.124 27.581C28.259 25.913 26.808 24.53 24.927 23.585L23.708 22.972C22.016 22.12 20.717 20.889 19.949 19.408C19.319 18.193 19 16.879 19 15.5C19 12.327 20.781 9.483 23.464 8.027C23.643 8.021 23.819 8 24 8C32.822 8 40 15.178 40 24C40 32.177 33.831 38.93 25.905 39.876L25.905 39.876Z" id="Shape" fill="#FFFFFF" fill-rule="evenodd" stroke="none" />
    <path d="M38.458 27.528C37.682 26.601 36.44 25.699 35.649 24.393C35.538 24.209 35.596 23.986 35.784 23.886C36.799 23.342 36.978 23.441 38 23C37 22 35.963 21.64 34.319 21.226C33.997 21.159 33.812 20.889 33.758 20.592C33.67 20.269 33.483 19.722 33.287 19.285C31.866 16.414 30.095 12.66 26.501 12.378C26.264 12.375 26.038 12.279 25.881 12.121C25.428 11.689 24.794 11.154 24.211 11.066C24.096 11.077 24.154 11.038 24.065 11.12C23.832 11.393 23.879 11.403 24.039 11.75C24.255 12.119 24.667 12.541 25.072 12.958C25.483 13.489 25.198 14.266 25.468 14.862C25.579 15.285 25.812 15.785 26.071 16.091C26.196 16.252 26.234 16.456 26.195 16.641C25.907 18.018 25.704 19.503 25.983 20.882C25.989 21.029 26.133 21.084 26.239 21.031C26.272 21.005 26.271 21.023 26.399 20.798C26.556 20.448 27.675 18.307 28 19C28.473 20.538 29.13 23.53 30.522 24.455C30.581 24.48 30.535 24.577 30.477 24.544C29.023 23.793 27.846 21.862 27.499 20.56C27.229 20.583 26.987 20.802 26.851 21.053C26.646 21.772 25.591 21.809 25.402 21.04C25.326 20.742 25.264 20.44 25.235 20.135C25.124 19.025 25.194 17.382 25.446 16.553C24.742 15.793 24.348 14.326 24.441 13.558C24.028 13.14 23.594 12.729 23.271 12.214C22.663 11.44 23.195 10.082 24.238 10.131C25.162 10.208 25.91 10.838 26.568 11.432C27.297 11.367 28.741 11.876 29.55 12.423C31.384 13.614 32.349 15.659 33.397 17.501C33.806 18.337 34.539 19.751 34.52 20.425C36.386 21.003 38.495 21.702 39.559 23.471C39.578 23.506 39.56 23.551 39.521 23.562C39.521 23.562 36.621 24.472 36.621 24.472L38.542 27.472C38.575 27.522 38.495 27.584 38.458 27.528L38.458 27.528L38.458 27.528Z" id="Shape" fill="#FFFFFF" stroke="none" />
    <path d="M27.046 13.688L27.879 14.877C27.879 14.878 28.83 13.53 27.046 13.688L27.046 13.688Z" id="Shape" fill="#FFFFFF" stroke="none" />
    <path d="M9.76197 20.071C10.538 20.998 11.7799 21.9 12.5709 23.2059C12.6819 23.3899 12.6239 23.6129 12.4359 23.7129C11.4209 24.2559 11.2429 24.1569 10.221 24.5989C11.2209 25.5989 12.2579 25.9589 13.9019 26.3728C14.2239 26.4398 14.4089 26.7098 14.4629 27.0068C14.5509 27.3298 14.7378 27.8768 14.9338 28.3138C16.3548 31.1847 18.1258 34.9386 21.7197 35.2206C21.9567 35.2236 22.1827 35.3196 22.3397 35.4776C22.7926 35.9096 23.4266 36.4446 24.0096 36.5326C24.1246 36.5216 24.0666 36.5606 24.1556 36.4786C24.3886 36.2056 24.3416 36.1956 24.1816 35.8486C23.9656 35.4796 23.5536 35.0576 23.1486 34.6406C22.7376 34.1096 23.0226 33.3327 22.7526 32.7367C22.6416 32.3137 22.4087 31.8137 22.1497 31.5077C22.0247 31.3467 21.9867 31.1427 22.0257 30.9577C22.3137 29.5808 22.5167 28.0958 22.2377 26.7168C22.2317 26.5698 22.0877 26.5148 21.9817 26.5678C21.9487 26.5938 21.9497 26.5758 21.8217 26.8008C21.6637 27.1488 20.5447 29.2908 20.2197 28.5968C19.7467 27.0588 19.0897 24.0669 17.6978 23.1419C17.6388 23.1169 17.6848 23.0199 17.7428 23.0529C19.1967 23.8039 20.3737 25.7349 20.7207 27.0368C20.9907 27.0138 21.2327 26.7948 21.3687 26.5438C21.5737 25.8249 22.6287 25.7879 22.8176 26.5568C22.8936 26.8548 22.9556 27.1568 22.9846 27.4618C23.0956 28.5718 23.0256 30.2147 22.7736 31.0437C23.4776 31.8037 23.8716 33.2707 23.7786 34.0386C24.1916 34.4566 24.6256 34.8676 24.9486 35.3826C25.5566 36.1566 25.0246 37.5146 23.9816 37.4656C23.0576 37.3886 22.3097 36.7586 21.6517 36.1646C20.9227 36.2296 19.4787 35.7206 18.6697 35.1736C16.8358 33.9827 15.8708 31.9377 14.8228 30.0957C14.4139 29.2598 13.6809 27.8458 13.6999 27.1718C11.8339 26.5938 9.72497 25.8949 8.661 24.1259C8.642 24.0909 8.66 24.0459 8.699 24.0349C8.699 24.0349 11.5989 23.1249 11.5989 23.1249L9.67797 20.125C9.64498 20.077 9.72497 20.016 9.76197 20.071L9.76197 20.071L9.76197 20.071ZM21.174 33.911L20.341 32.722C20.342 32.722 19.39 34.07 21.174 33.911L21.174 33.911Z" id="Group" fill="#FFFFFF" fill-rule="evenodd" stroke="none" />
  </g>
</svg>