<?xml version="1.0" encoding="utf-8"?>
<svg width="48px" height="48px" viewBox="0 0 48 48" version="1.1"
    xmlns:xlink="http://www.w3.org/1999/xlink" xmlns="http://www.w3.org/2000/svg">
    <defs>
        <path d="M48 0L48 0L48 48L0 48L0 0L48 0Z" id="path_1" />
        <clipPath id="clip_1">
            <use xlink:href="#path_1" clip-rule="evenodd" fill-rule="evenodd" />
        </clipPath>
    </defs>
    <g id="Bootstrap" clip-path="url(#clip_1)">
        <path d="M48 0L48 0L48 48L0 48L0 0L48 0Z" id="Bootstrap" fill="none" stroke="none" />
        <path
            d="M7.373 11.443C7.293 9.132 9.094 7 11.529 7L36.475 7C38.91 7 40.711 9.132 40.63 11.443C40.553 13.664 40.653 16.54 41.377 18.886C42.103 21.239 43.328 22.726 45.334 22.917L45.334 25.084C43.328 25.275 42.104 26.762 41.377 29.115C40.653 31.46 40.553 34.337 40.63 36.558C40.71 38.868 38.909 41 36.475 41L11.529 41C9.095 41 7.293 38.868 7.374 36.557C7.451 34.336 7.351 31.46 6.627 29.114C5.901 26.761 4.673 25.274 2.667 25.083L2.667 22.916C4.673 22.725 5.9 21.238 6.627 18.885C7.35 16.54 7.451 13.664 7.373 11.443L7.373 11.443Z"
            id="Shape" fill="#7C4DFF" stroke="none" />
        <path
            d="M27.073 23.464L27.073 23.436C28.926 23.116 30.372 21.379 30.372 19.466C30.372 18.114 29.852 16.968 28.868 16.154C27.887 15.342 26.511 14.913 24.887 14.913L17.45 14.913L17.45 33.08L24.925 33.08C26.867 33.08 28.48 32.606 29.588 31.708C30.697 30.809 31.284 29.501 31.284 27.925C31.283 25.544 29.593 23.756 27.073 23.464L27.073 23.464ZM23.59 22.608L20.409 22.608L20.409 17.29L24.193 17.29C26.269 17.29 27.412 18.201 27.412 19.855C27.413 21.63 26.055 22.608 23.59 22.608L23.59 22.608ZM20.409 24.834L24.168 24.834C26.884 24.834 28.26 25.815 28.26 27.75C28.26 29.682 26.903 30.703 24.335 30.703L20.409 30.703L20.409 24.834L20.409 24.834Z"
            id="Shape" fill="#FFFFFF" fill-rule="evenodd" stroke="none" />
    </g>
</svg>