<?xml version="1.0" encoding="utf-8"?>
<svg width="40px" height="40px" viewBox="0 0 40 40" version="1.1"
    xmlns:xlink="http://www.w3.org/1999/xlink" xmlns="http://www.w3.org/2000/svg">
    <defs>
        <path d="M40 0L40 0L40 40L0 40L0 0L40 0Z" id="path_1" />
        <clipPath id="clip_1">
            <use xlink:href="#path_1" clip-rule="evenodd" fill-rule="evenodd" />
        </clipPath>
    </defs>
    <g id="Instagram 4" clip-path="url(#clip_1)">
        <path d="M40 0L40 0L40 40L0 40L0 0L40 0Z" id="Instagram-4" fill="none" stroke="none" />
        <path
            d="M30.5 38.5C34.918 38.5 38.5 34.918 38.5 30.5L38.5 9.5C38.5 5.082 34.918 1.5 30.5 1.5L9.5 1.5C5.082 1.5 1.5 5.082 1.5 9.5L1.5 30.5C1.5 34.918 5.082 38.5 9.5 38.5L30.5 38.5L30.5 38.5Z"
            id="Shape" fill="#8585CC" stroke="none" />
        <path
            d="M3.4 4.331C2.217 5.726 1.5 7.528 1.5 9.5L1.5 30.5C1.5 34.918 5.082 38.5 9.5 38.5L30.5 38.5C34.918 38.5 38.5 34.918 38.5 30.5L38.5 9.5C38.5 8.997 38.448 8.508 38.359 8.031C32.135 4.22 24.832 2 17 2C12.229 2 7.657 2.832 3.4 4.331L3.4 4.331Z"
            id="Shape" fill="#8D8DD8" stroke="none" />
        <path
            d="M1.505 9.404C1.504 9.437 1.5 9.468 1.5 9.5L1.5 30.5C1.5 34.918 5.082 38.5 9.5 38.5L30.5 38.5C34.918 38.5 38.5 34.918 38.5 30.5L38.5 12.897C32.439 8.56 25.021 6 17 6C11.465 6 6.22 7.226 1.505 9.404L1.505 9.404Z"
            id="Shape" fill="#BD82F4" stroke="none" />
        <path
            d="M1.5 13.88L1.5 30.5C1.5 34.918 5.082 38.5 9.5 38.5L30.5 38.5C34.918 38.5 38.5 34.918 38.5 30.5L38.5 17.981C32.724 13.013 25.217 10 17 10C11.394 10 6.124 11.414 1.5 13.88L1.5 13.88Z"
            id="Shape" fill="#ED73F4" stroke="none" />
        <path
            d="M17 14C11.295 14 5.986 15.664 1.5 18.509L1.5 30.5C1.5 34.918 5.082 38.5 9.5 38.5L30.5 38.5C34.918 38.5 38.5 34.918 38.5 30.5L38.5 23.565C33.194 17.698 25.534 14 17 14L17 14Z"
            id="Shape" fill="#F97DCD" stroke="none" />
        <path
            d="M17 18C11.139 18 5.763 20.033 1.5 23.411L1.5 30.5C1.5 34.918 5.082 38.5 9.5 38.5L30.5 38.5C34.918 38.5 38.5 34.918 38.5 30.5L38.5 30.262C34.143 22.925 26.152 18 17 18L17 18Z"
            id="Shape" fill="#FC9C95" stroke="none" />
        <path
            d="M17 22C10.855 22 5.34 24.651 1.5 28.859L1.5 30.5C1.5 34.918 5.082 38.5 9.5 38.5L30.5 38.5C32.965 38.5 35.168 37.383 36.636 35.63C33.648 27.674 25.999 22 17 22L17 22Z"
            id="Shape" fill="#FFAC99" stroke="none" />
        <path
            d="M30.5 38.5C31.457 38.5 32.37 38.323 33.221 38.015C31.087 31.065 24.649 26 17 26C10.814 26 5.408 29.309 2.434 34.248C3.778 36.777 6.437 38.5 9.5 38.5L30.5 38.5L30.5 38.5Z"
            id="Shape" fill="#FFC49C" stroke="none" />
        <path
            d="M17 30C11.863 30 7.427 32.984 5.316 37.309C6.535 38.06 7.964 38.5 9.5 38.5L29.183 38.5C27.35 33.542 22.595 30 17 30L17 30Z"
            id="Shape" fill="#FFDE8D" stroke="none" />
        <path
            d="M17 34C13.681 34 10.807 35.813 9.247 38.487C9.332 38.49 9.415 38.5 9.5 38.5L24.76 38.5C23.203 35.818 20.324 34 17 34L17 34Z"
            id="Shape" fill="#FFF69F" stroke="none" />
        <path
            d="M31 2C34.86 2 38 5.14 38 9L38 31C38 34.86 34.86 38 31 38L9 38C5.14 38 2 34.86 2 31L2 9C2 5.14 5.14 2 9 2L31 2M31 1L9 1C4.582 1 1 4.582 1 9L1 31C1 35.418 4.582 39 9 39L31 39C35.418 39 39 35.418 39 31L39 9C39 4.582 35.418 1 31 1L31 1L31 1Z"
            id="Shape" fill="#8B75A1" fill-rule="evenodd" stroke="none" />
        <path
            d="M27.5 11C26.6716 11 26 11.6716 26 12.5C26 13.3284 26.6716 14 27.5 14C28.3284 14 29 13.3284 29 12.5C29 11.6716 28.3284 11 27.5 11L27.5 11Z"
            id="Shape" fill="#FFFFFF" stroke="none" />
        <path
            d="M20 14C16.6863 14 14 16.6863 14 20C14 23.3137 16.6863 26 20 26C23.3137 26 26 23.3137 26 20C26 16.6863 23.3137 14 20 14L20 14Z"
            id="Shape" fill="none" stroke="#FFFFFF" stroke-width="3" />
        <path
            d="M33 14.5C33 10.358 29.642 7 25.5 7C23.324 7 16.676 7 14.5 7C10.358 7 7 10.358 7 14.5C7 16.676 7 23.324 7 25.5C7 29.642 10.358 33 14.5 33C16.676 33 23.324 33 25.5 33C29.642 33 33 29.642 33 25.5C33 23.324 33 16.676 33 14.5L33 14.5Z"
            id="Shape" fill="none" stroke="#FFFFFF" stroke-width="3" />
    </g>
</svg>